<?xml version="1.0" standalone="no"?>
<!DOCTYPE svg PUBLIC "-//W3C//DTD SVG 20010904//EN"
 "http://www.w3.org/TR/2001/REC-SVG-20010904/DTD/svg10.dtd">
<svg version="1.0" xmlns="http://www.w3.org/2000/svg"
 width="1920.000000pt" height="1920.000000pt" viewBox="0 0 1920.000000 1920.000000"
 preserveAspectRatio="xMidYMid meet">
<metadata>
Created by potrace 1.15, written by Peter Selinger 2001-2017
</metadata>
<g transform="translate(0.000000,1920.000000) scale(0.100000,-0.100000)"
fill="#000000" stroke="none">
<path d="M0 9600 l0 -9600 9600 0 9600 0 0 9600 0 9600 -9600 0 -9600 0 0
-9600z m10035 6380 c1802 -106 3469 -864 4584 -2085 814 -890 1285 -1961 1362
-3089 16 -234 9 -386 -24 -512 -87 -333 -258 -626 -575 -987 -110 -125 -547
-580 -563 -585 -16 -6 -831 417 -844 438 -3 5 4 32 16 62 179 447 207 989 78
1501 -183 727 -708 1334 -1326 1536 -172 56 -298 75 -488 74 -141 0 -189 -5
-285 -25 -311 -68 -569 -215 -805 -460 -116 -120 -210 -244 -277 -366 l-40
-72 -61 52 c-105 90 -680 663 -867 863 -730 781 -1362 1584 -1996 2535 -320
480 -514 793 -498 803 22 13 321 96 474 132 406 95 856 162 1240 184 211 12
698 12 895 1z m-3282 -795 c1072 -1751 2338 -3292 3711 -4516 l138 -124 -5
-100 c-10 -205 23 -518 78 -730 110 -421 304 -771 589 -1064 280 -286 578
-455 935 -527 188 -38 426 -35 611 7 211 49 457 170 615 303 28 24 56 46 63
50 7 5 72 -26 165 -77 83 -47 253 -138 377 -202 124 -65 226 -119 228 -120 1
-1 -21 -32 -48 -68 -277 -366 -491 -818 -594 -1257 -85 -362 -95 -510 -96
-1415 0 -704 -2 -752 -19 -790 -24 -52 -89 -111 -182 -165 -41 -23 -119 -70
-174 -103 -55 -33 -149 -90 -210 -127 -172 -104 -294 -170 -510 -278 l-200
-100 -5 671 c-6 747 -2 705 -75 813 -43 62 -97 107 -173 142 -50 24 -69 27
-162 27 -93 0 -111 -3 -163 -27 -80 -38 -160 -117 -200 -197 l-32 -66 -3 -837
-2 -837 -83 -25 c-339 -103 -800 -192 -1172 -226 -60 -5 -118 -10 -127 -10
-16 0 -17 44 -20 643 -3 641 -3 642 -26 697 -46 113 -130 197 -242 242 -77 30
-203 30 -280 0 -112 -45 -196 -129 -242 -242 -23 -55 -23 -56 -26 -697 -2
-495 -6 -643 -15 -643 -45 0 -270 25 -416 46 -283 40 -514 90 -823 176 l-148
41 -2 836 -3 836 -32 66 c-40 80 -120 159 -200 197 -52 24 -70 27 -163 27 -93
0 -112 -3 -162 -27 -115 -54 -192 -141 -229 -257 -18 -59 -19 -97 -19 -712 0
-396 -4 -649 -9 -649 -5 0 -115 53 -243 118 -231 118 -420 223 -593 331 -49
32 -141 86 -204 121 -63 36 -137 85 -164 110 -93 83 -87 21 -87 883 0 823 1
808 -60 1098 -113 544 -341 1034 -707 1522 -149 197 -333 406 -708 802 -459
485 -648 726 -794 1015 -136 268 -201 517 -201 772 1 662 177 1397 490 2043
486 1002 1276 1831 2343 2457 161 94 590 309 599 300 3 -4 53 -83 111 -177z"/>
<path d="M6805 12334 c-326 -35 -652 -174 -919 -393 -102 -83 -275 -266 -354
-374 -237 -321 -382 -669 -452 -1087 -27 -159 -37 -469 -21 -633 69 -700 441
-1305 973 -1582 228 -118 429 -166 693 -166 442 0 857 189 1211 552 396 407
628 950 663 1553 25 412 -55 822 -225 1165 -252 509 -667 845 -1161 941 -105
20 -322 33 -408 24z"/>
<path d="M9534 8991 c-69 -31 -100 -84 -195 -330 -407 -1057 -397 -1030 -384
-1141 9 -74 56 -189 113 -274 58 -89 219 -252 295 -300 204 -130 383 -104 579
83 219 208 329 431 300 606 -10 60 -417 1137 -467 1236 -30 57 -92 115 -142
128 -49 14 -51 14 -99 -8z"/>
</g>
</svg>
